<svg width="22" height="30" viewBox="0 0 16 20" fill="none" xmlns="http://www.w3.org/2000/svg">
<g clip-path="url(#clip0)">
<path d="M14.1512 10.0501C13.9795 9.66542 13.7426 9.28658 13.3961 8.84901C12.5226 7.75069 12.256 5.30147 12.2531 5.27798C12.2412 5.16051 12.1583 5.0636 12.0488 5.02836C11.9362 4.99312 11.8148 5.02542 11.7349 5.11352C10.6925 6.2794 11.1308 8.0796 11.3677 8.79909C11.4328 8.99585 11.5039 9.22785 11.5542 9.46278C11.9392 11.3628 11.1959 12.2233 11.0212 12.3966C10.8524 12.4435 10.7369 12.42 10.6303 12.3055C10.2631 11.9032 10.1417 10.5846 10.3135 8.86663C10.349 8.51717 10.3401 8.20294 10.2898 7.90927C9.92758 5.79769 8.5995 4.44322 8.26139 3.96821C7.33158 2.59383 7.23682 0.306138 7.23386 0.285581C7.2309 0.176923 7.16872 0.0800121 7.071 0.0330248C6.97624 -0.0139625 6.86075 -0.00808904 6.77192 0.0535818C5.22026 1.10786 5.35351 3.64811 5.56968 5.06654C5.62002 5.39545 5.71774 5.73023 5.88653 6.15312C6.48764 7.66552 5.76808 9.61843 5.76216 9.63605C5.75623 9.65367 5.75031 9.66835 5.74735 9.68597C5.65555 10.1676 5.50157 10.4554 5.32982 10.4554C5.31206 10.4554 5.29429 10.4525 5.27356 10.4466C5.06332 10.4025 4.95375 10.1793 4.95079 9.98552C4.93895 7.48051 2.42491 6.63767 2.39826 6.62886C2.28573 6.59362 2.16136 6.62593 2.08437 6.71697C2.00442 6.808 1.98962 6.93428 2.04292 7.04C2.07253 7.10167 2.16729 7.37185 2.10214 8.32628C2.04588 9.1838 1.88894 10.0325 1.63724 10.846C1.03908 12.7959 1.13384 14.6431 1.13976 14.7312C1.59972 19.7326 8.79259 20.609 13.0615 17.7913C13.5293 17.4829 13.9113 17.1305 14.1926 16.7429C15.768 14.5697 14.8412 11.6183 14.1512 10.0501ZM3.20965 14.8281C3.21853 14.9897 3.09416 15.1277 2.9313 15.1365H2.91353C2.75659 15.1365 2.6263 15.0161 2.61742 14.8604C2.59076 14.4317 2.59669 13.9824 2.62926 13.4949C2.6411 13.3334 2.78324 13.213 2.94611 13.2217C3.10897 13.2335 3.23334 13.3744 3.2215 13.536C3.18889 14 3.183 14.4229 3.20965 14.8281ZM3.35472 12.2262C3.33695 12.376 3.20962 12.4847 3.06156 12.4847C3.04972 12.4847 3.03787 12.4847 3.02307 12.4817C2.86316 12.4612 2.74768 12.3173 2.76544 12.1557L2.90758 11.0222C2.92831 10.8636 3.07341 10.7491 3.23923 10.7667C3.4021 10.7872 3.51758 10.9341 3.49686 11.0956L3.35472 12.2262Z" fill="#FF6B09"/>
<path d="M12.1483 4.01767C11.9868 3.99285 11.8761 3.84317 11.901 3.683C11.9195 3.56368 12.0264 2.95285 12.3168 2.6457C12.4285 2.52726 12.6157 2.52109 12.7354 2.63236C12.8547 2.7432 12.8607 2.92906 12.7488 3.0475C12.6259 3.17756 12.5212 3.54979 12.4863 3.77251C12.4613 3.93098 12.3122 4.04219 12.1483 4.01767Z" fill="#FF6B09"/>
<path d="M1.3526 5.48046C1.29592 5.26206 1.15509 4.90187 1.01991 4.78429C0.896871 4.6773 0.884582 4.49176 0.992428 4.36989C1.10001 4.24772 1.28695 4.23524 1.41028 4.34263C1.72938 4.62009 1.89609 5.21763 1.92632 5.33448C1.9668 5.4915 1.87139 5.65123 1.71321 5.69167C1.55153 5.73199 1.3929 5.63487 1.3526 5.48046Z" fill="#FF6B09"/>
</g>
<defs>
<clipPath id="clip0">
<rect width="14.2137" height="19.3823" fill="white" transform="translate(0.880859)"/>
</clipPath>
</defs>
</svg>
